<svg width="25" height="24" viewBox="0 0 25 24" fill="none" xmlns="http://www.w3.org/2000/svg">
    <path d="M20.3 21C20.3 19.6044 20.3 18.9067 20.1278 18.3389C19.74 17.0605 18.7396 16.06 17.4612 15.6722C16.8934 15.5 16.1956 15.5 14.8 15.5H9.80005C8.40449 15.5 7.7067 15.5 7.13891 15.6722C5.8605 16.06 4.86009 17.0605 4.47229 18.3389C4.30005 18.9067 4.30005 19.6044 4.30005 21M16.8 7.5C16.8 9.98528 14.7853 12 12.3 12C9.81477 12 7.80005 9.98528 7.80005 7.5C7.80005 5.01472 9.81477 3 12.3 3C14.7853 3 16.8 5.01472 16.8 7.5Z" stroke="#475467" stroke-width="1.5" stroke-linecap="round" stroke-linejoin="round"/>
</svg>
